Coordinates
nRows=114
nColumns=2
inDegrees=yes
endheader
time	ankle_angle_r	
3.14919	  9.479774	
3.22077	  9.456175	
3.29234	  9.517002	
3.36391	  9.353638	
3.43548	  9.379256	
3.50706	  9.470601	
3.57863	  9.445190	
3.6502	  9.456236	
3.72177	  9.485236	
3.79335	  9.500287	
3.86492	  9.417854	
3.93649	  9.460449	
4.00806	  9.484404	
4.07964	  9.490967	
4.15121	  9.420351	
4.22278	  9.391342	
4.29435	  9.468313	
4.36593	  9.529140	
4.4375	  9.429932	
4.50907	  9.414673	
4.58065	  9.398219	
4.65222	  9.406238	
4.72379	  9.338379	
4.79536	  9.316712	
4.86694	  9.408473	
4.93851	  9.368896	
5.01008	  9.368896	
5.08165	  9.332804	
5.15323	  9.399414	
5.2248	  9.383936	
5.29637	  9.307861	
5.36794	  9.358381	
5.43952	  9.390343	
5.51109	  9.379827	
5.58266	  9.414673	
5.65423	  9.403325	
5.72581	  9.494670	
5.79738	  9.377165	
5.86895	  9.399414	
5.94052	  9.463529	
6.0121	  9.536743	
6.08367	  9.493630	
6.15524	  9.447646	
6.22681	  9.488720	
6.29839	  9.488928	
6.36996	  9.401245	
6.44153	  9.399414	
6.5131	  9.428516	
6.58468	  9.415880	
6.65625	  9.354637	
6.72782	  9.384155	
6.7994	  9.459867	
6.87097	  9.430306	
6.94254	  9.429765	
7.01411	  9.506267	
7.08569	  9.521733	
7.15726	  9.506226	
7.22883	  9.461780	
7.3004	  9.489221	
7.37198	  9.447352	
7.44355	  9.431221	
7.51512	  9.385653	
7.58669	  9.492672	
7.65827	  9.536743	
7.72984	  9.490967	
7.80141	  9.445190	
7.87298	  9.549464	
7.94456	  9.460449	
8.01613	  9.485060	
8.0877	  9.438868	
8.15927	  9.429932	
8.23085	  9.418250	
8.30242	  9.368896	
8.37399	  9.437203	
8.44556	  9.403616	
8.51714	  9.364487	
8.58871	  9.353638	
8.66028	  9.379330	
8.73185	  9.389189	
8.80343	  9.333603	
8.875	  9.327479	
8.94657	  9.389812	
9.01815	  9.368896	
9.08972	  9.378081	
9.16129	  9.387741	
9.23286	  9.469218	
9.30444	  9.406112	
9.37601	  9.443743	
9.44758	  9.537774	
9.51915	  9.506226	
9.59073	  9.452919	
9.6623	  9.437452	
9.73387	  9.460449	
9.80544	  9.459400	
9.87702	  9.453552	
9.94859	  9.482397	
10.0202	  9.384155	
10.0917	  9.469435	
10.1633	  9.402543	
10.2349	  9.420529	
10.3065	  9.542392	
10.378	  9.506226	
10.4496	  9.470475	
10.5212	  9.389180	
10.5927	  9.404231	
10.6643	  9.390197	
10.7359	  9.331922	
10.8075	  9.368896	
10.879	  9.399414	
10.9506	  9.384155	
11.0222	  9.334810	
11.0937	  9.399414	
11.1653	  9.381002	
11.2369	  9.323120	
